HIERARCHY
ROOT hips
{
  OFFSET 0 10.680822821525009 1.3929502295107734
  CHANNELS 6 Xposition Yposition Zposition Yrotation Xrotation Zrotation
  JOINT spine
  {
    OFFSET -7.042017322922631e-31 0.6058489940359625 0
    CHANNELS 3 Yrotation Xrotation Zrotation
    JOINT chest
    {
      OFFSET 0 1.2699794144455032 0
      CHANNELS 3 Yrotation Xrotation Zrotation
      JOINT upperChest
      {
        OFFSET 0 1.217799211677689 0
        CHANNELS 3 Yrotation Xrotation Zrotation
        JOINT neck
        {
          OFFSET 0 1.5248826104153006 0
          CHANNELS 3 Yrotation Xrotation Zrotation
          JOINT head
          {
            OFFSET 0 0.8197772727844447 0
            CHANNELS 3 Yrotation Xrotation Zrotation
            JOINT leftEye
            {
              OFFSET 0.2793952361220866 0.6769952096623495 0.1830357412467788
              CHANNELS 3 Yrotation Xrotation Zrotation
              End Site
              {
                OFFSET 0.2793952361220866 0.6769952096623495 0.1830357412467788
              }
            }
            JOINT rightEye
            {
              OFFSET -0.27939522230689573 0.676995205357064 0.18303631459760622
              CHANNELS 3 Yrotation Xrotation Zrotation
              End Site
              {
                OFFSET -0.27939522230689573 0.676995205357064 0.18303631459760622
              }
            }
          }
        }
        JOINT leftShoulder
        {
          OFFSET 0.41486978509200423 1.1670505408695453 0
          CHANNELS 3 Yrotation Xrotation Zrotation
          JOINT leftUpperArm
          {
            OFFSET 0.9737926108153417 0 0
            CHANNELS 3 Yrotation Xrotation Zrotation
            JOINT leftLowerArm
            {
              OFFSET 2.5269332222665284 0 0
              CHANNELS 3 Yrotation Xrotation Zrotation
              JOINT leftHand
              {
                OFFSET 2.4263782738425914 0 0
                CHANNELS 3 Yrotation Xrotation Zrotation
                JOINT leftIndexProximal
                {
                  OFFSET 0.724320348022514 0.08170607082582437 0.20360061616140124
                  CHANNELS 3 Yrotation Xrotation Zrotation
                  JOINT leftIndexIntermediate
                  {
                    OFFSET 0.36548960630744587 -0.010566596513783999 -0.01414783573280308
                    CHANNELS 3 Yrotation Xrotation Zrotation
                    JOINT leftIndexDistal
                    {
                      OFFSET 0.22502819650693362 -0.007863819831430696 -0.007567681939621526
                      CHANNELS 3 Yrotation Xrotation Zrotation
                      End Site
                      {
                        OFFSET 0.22502819650693362 -0.007863819831430696 -0.007567681939621526
                      }
                    }
                  }
                }
                JOINT leftLittleProximal
                {
                  OFFSET 0.6720322998298205 0.08170601055037707 -0.3230036039466837
                  CHANNELS 3 Yrotation Xrotation Zrotation
                  JOINT leftLittleIntermediate
                  {
                    OFFSET 0.34583592281688713 5.476543019078406e-8 1.3869203337180114e-7
                    CHANNELS 3 Yrotation Xrotation Zrotation
                    JOINT leftLittleDistal
                    {
                      OFFSET 0.19925728062053938 0.003098047439490381 0.0038303983709246925
                      CHANNELS 3 Yrotation Xrotation Zrotation
                      End Site
                      {
                        OFFSET 0.19925728062053938 0.003098047439490381 0.0038303983709246925
                      }
                    }
                  }
                }
                JOINT leftMiddleProximal
                {
                  OFFSET 0.7300436596551069 0.0817073395107144 0.022661722987926763
                  CHANNELS 3 Yrotation Xrotation Zrotation
                  JOINT leftMiddleIntermediate
                  {
                    OFFSET 0.40758254347686607 -0.0000012383587111308714 2.408460318820138e-7
                    CHANNELS 3 Yrotation Xrotation Zrotation
                    JOINT leftMiddleDistal
                    {
                      OFFSET 0.2514490105498507 0.0000013869132886590307 9.738618134136345e-8
                      CHANNELS 3 Yrotation Xrotation Zrotation
                      End Site
                      {
                        OFFSET 0.2514490105498507 0.0000013869132886590307 9.738618134136345e-8
                      }
                    }
                  }
                }
                JOINT leftRingProximal
                {
                  OFFSET 0.7217261161191838 0.08170601902187746 -0.15043395722184966
                  CHANNELS 3 Yrotation Xrotation Zrotation
                  JOINT leftRingIntermediate
                  {
                    OFFSET 0.37808807487521556 0.0000013754022405443322 2.2046919317952884e-7
                    CHANNELS 3 Yrotation Xrotation Zrotation
                    JOINT leftRingDistal
                    {
                      OFFSET 0.21812105442344254 -0.002713483731960231 -0.004991354517454624
                      CHANNELS 3 Yrotation Xrotation Zrotation
                      End Site
                      {
                        OFFSET 0.21812105442344254 -0.002713483731960231 -0.004991354517454624
                      }
                    }
                  }
                }
                JOINT leftThumbProximal
                {
                  OFFSET 0.10793587079521427 -0.1652791240518252 -0.07775251827190094
                  CHANNELS 3 Yrotation Xrotation Zrotation
                  JOINT leftThumbIntermediate
                  {
                    OFFSET 0.40355819082296684 -0.017484006740276614 0.3177776014416309
                    CHANNELS 3 Yrotation Xrotation Zrotation
                    JOINT leftThumbDistal
                    {
                      OFFSET 0.2318764658022603 -0.018510186824293617 0.21396001800186287
                      CHANNELS 3 Yrotation Xrotation Zrotation
                      End Site
                      {
                        OFFSET 0.2318764658022603 -0.018510186824293617 0.21396001800186287
                      }
                    }
                  }
                }
              }
            }
          }
        }
        JOINT rightShoulder
        {
          OFFSET -0.4148697850920044 1.1670505408695453 0
          CHANNELS 3 Yrotation Xrotation Zrotation
          JOINT rightUpperArm
          {
            OFFSET -0.9737926108153414 0 0
            CHANNELS 3 Yrotation Xrotation Zrotation
            JOINT rightLowerArm
            {
              OFFSET -2.5269332222665293 0 0
              CHANNELS 3 Yrotation Xrotation Zrotation
              JOINT rightHand
              {
                OFFSET -2.42637827384259 0 0
                CHANNELS 3 Yrotation Xrotation Zrotation
                JOINT rightIndexProximal
                {
                  OFFSET -0.724320348022514 0.08170607082582437 0.20360061616140124
                  CHANNELS 3 Yrotation Xrotation Zrotation
                  JOINT rightIndexIntermediate
                  {
                    OFFSET -0.36548960630744587 -0.010566596513783999 -0.01414783573280308
                    CHANNELS 3 Yrotation Xrotation Zrotation
                    JOINT rightIndexDistal
                    {
                      OFFSET -0.22502819650693362 -0.007863819831430696 -0.007567681939621526
                      CHANNELS 3 Yrotation Xrotation Zrotation
                      End Site
                      {
                        OFFSET -0.22502819650693362 -0.007863819831430696 -0.007567681939621526
                      }
                    }
                  }
                }
                JOINT rightLittleProximal
                {
                  OFFSET -0.6720322998298205 0.08170601055037707 -0.3230036039466837
                  CHANNELS 3 Yrotation Xrotation Zrotation
                  JOINT rightLittleIntermediate
                  {
                    OFFSET -0.34583592281688713 5.476543019078406e-8 1.3869203337180114e-7
                    CHANNELS 3 Yrotation Xrotation Zrotation
                    JOINT rightLittleDistal
                    {
                      OFFSET -0.19925728062053938 0.003098047439490381 0.0038303983709246925
                      CHANNELS 3 Yrotation Xrotation Zrotation
                      End Site
                      {
                        OFFSET -0.19925728062053938 0.003098047439490381 0.0038303983709246925
                      }
                    }
                  }
                }
                JOINT rightMiddleProximal
                {
                  OFFSET -0.7300436596551069 0.0817073395107144 0.022661722987926763
                  CHANNELS 3 Yrotation Xrotation Zrotation
                  JOINT rightMiddleIntermediate
                  {
                    OFFSET -0.40758254347686607 -0.0000012383587111308714 2.408460318820138e-7
                    CHANNELS 3 Yrotation Xrotation Zrotation
                    JOINT rightMiddleDistal
                    {
                      OFFSET -0.2514490105498507 0.0000013869132886590307 9.738618134136345e-8
                      CHANNELS 3 Yrotation Xrotation Zrotation
                      End Site
                      {
                        OFFSET -0.2514490105498507 0.0000013869132886590307 9.738618134136345e-8
                      }
                    }
                  }
                }
                JOINT rightRingProximal
                {
                  OFFSET -0.7217261161191838 0.08170601902187746 -0.15043395722184966
                  CHANNELS 3 Yrotation Xrotation Zrotation
                  JOINT rightRingIntermediate
                  {
                    OFFSET -0.37808807487521556 0.0000013754022405443322 2.2046919317952884e-7
                    CHANNELS 3 Yrotation Xrotation Zrotation
                    JOINT rightRingDistal
                    {
                      OFFSET -0.21812105442344254 -0.002713483731960231 -0.004991354517454624
                      CHANNELS 3 Yrotation Xrotation Zrotation
                      End Site
                      {
                        OFFSET -0.21812105442344254 -0.002713483731960231 -0.004991354517454624
                      }
                    }
                  }
                }
                JOINT rightThumbProximal
                {
                  OFFSET -0.10793587079521427 -0.1652791240518252 -0.07775251827190094
                  CHANNELS 3 Yrotation Xrotation Zrotation
                  JOINT rightThumbIntermediate
                  {
                    OFFSET -0.40355819082296684 -0.017484006740276614 0.3177776014416309
                    CHANNELS 3 Yrotation Xrotation Zrotation
                    JOINT rightThumbDistal
                    {
                      OFFSET -0.2318764658022603 -0.018510186824293617 0.21396001800186287
                      CHANNELS 3 Yrotation Xrotation Zrotation
                      End Site
                      {
                        OFFSET -0.2318764658022603 -0.018510186824293617 0.21396001800186287
                      }
                    }
                  }
                }
              }
            }
          }
        }
      }
    }
  }
  JOINT leftUpperLeg
  {
    OFFSET 0.8486251390888677 -0.4421577294694363 0
    CHANNELS 3 Yrotation Xrotation Zrotation
    JOINT leftLowerLeg
    {
      OFFSET 0 -4.10147812638609 0
      CHANNELS 3 Yrotation Xrotation Zrotation
      JOINT leftFoot
      {
        OFFSET -0.0002543926476658853 -4.77292286812444 0.007402811231737388
        CHANNELS 3 Yrotation Xrotation Zrotation
        JOINT leftToes
        {
          OFFSET 0 -0.7027875951174846 1.2062924140498823
          CHANNELS 3 Yrotation Xrotation Zrotation
          End Site
          {
            OFFSET 0 -0.7027875951174846 1.2062924140498823
          }
        }
      }
    }
  }
  JOINT rightUpperLeg
  {
    OFFSET -0.8486251390888677 -0.4421577294694363 0
    CHANNELS 3 Yrotation Xrotation Zrotation
    JOINT rightLowerLeg
    {
      OFFSET 0 -4.10147812638609 0
      CHANNELS 3 Yrotation Xrotation Zrotation
      JOINT rightFoot
      {
        OFFSET 0.0002543926476658853 -4.77292286812444 0.007402811231737388
        CHANNELS 3 Yrotation Xrotation Zrotation
        JOINT rightToes
        {
          OFFSET 0 -0.7027875951174846 1.2062924140498823
          CHANNELS 3 Yrotation Xrotation Zrotation
          End Site
          {
            OFFSET 0 -0.7027875951174846 1.2062924140498823
          }
        }
      }
    }
  }
}
MOTION
Frames: 4
Frame Time: 0.03333333333333333
-0.010054081678390503 0.1797051707235262 0.764360249042511 -1.4073924066238883 -0.22561963393928358 -1.5760054301480924 -0.11943012747236345 0.19611337675780996 -0.17846788400518437 -0.08975627559270319 -1.2646973863309887 0.15061569514498452 0 0 0 3.498357984301474 -10.513906272282966 5.953016051279686 -3.259353683317648 -11.771366344649731 4.088545292880277 0 0 0 0 0 0 11.395044326480427 -0.9305592021245198 -5.49300364733559 -1.462782152879536 -3.2696852348129957 -60.796502341875346 -3.6002234765264696 -0.5298308212389664 0.06312841594238171 10.354344474002605 -28.165917578564937 16.15861727378786 -0.35802249986309787 0.010403337824681991 3.282079122670715 1.0465641819560738 0.08861196809960048 -9.661598282228445 -0.44995674762698495 0.015941149797793295 4.114969137180523 9.489043665869227 5.367111426067822 -31.22234015501878 -2.189589547839209 0.3685307338648314 -18.485164196352127 1.887143269217292 0.3640300008005088 -17.99245336167298 0.71602693788812 0.041715794252982524 -6.703050780908261 1.2475951196679986 0.12680806163383207 -11.651973112365212 1.0714317835411857 0.0935858261975045 -9.985744592639772 4.804645013571291 1.9747249832946625 -23.41447031464474 1.5505076889012392 0.19834767560729205 -14.565387280270352 0.6638140545937355 0.035923862541065915 -6.181426446915597 22.975907708572336 -0.4412973625365499 9.967925772565827 4.810612756400853 2.2133242593060944 0.10517221630605912 -6.467381832583013 -2.6931542098788914 1.6193563918182112 -18.53083024681017 -2.1387943389749724 -3.807664494846362 16.522428732286336 -55.448776837995446 17.523374977534477 103.41331607103632 -7.273486624024864 -11.055598171152619 18.98308169562567 17.13494573076772 -21.601570940155096 15.64239560351969 -1.3366911942116733 -2.6598725822053275 -0.4278048247618108 0.016018297921387186 4.205067525251476 0.8557743319052498 0.06047372573685129 -7.984852358294308 -18.93083381875845 7.756627180125849 13.391549321209462 -0.10917289298241642 -0.001769115920301106 1.893317806813356 -0.8021884039407781 0.03275237635480593 6.861472706661264 1.790732507403705 -0.27760913576151425 0.19778039467676922 -1.5150113619021297 0.20145812533462912 14.976377563502652 0.3429717350523384 0.011774941054610234 -3.4936401667763435 -7.079777338014027 1.8043353793897636 6.728232526696137 -1.6468089259598584 0.21659541941734126 15.078858007777876 0.46740568293029794 -0.8339672637345572 -4.9069725975043355 -17.379423300118937 -9.043703854784294 -7.116061307143623 0.3830834178650408 -4.917101755579845 -5.884087359496839 10.601740644981712 -7.2521830930299 0.331973855616287 7.89386948782072 5.338566526881641 4.053378585757064 -3.4544698895682924 -0.4120733206907434 -0.7205919731094854 -0.20048287668291845 5.881053012517743 -3.8468460014276293 -0.0033393695741361284 -10.408081704137825 1.716512297576585 -6.471557739368548 5.313539811643793 1.374630533656124 -1.6925199372605255 0.23533872492883315 -0.3041877509217793 0.3629579353005771 7.532479585910781 4.641043240575564 0.09918151035215114 -11.410286554589696 -4.00901856691601
-0.010450680740177631 0.18161824140223715 0.761151909828186 -1.3097005725246165 -0.13849950921850165 -1.5252897945064523 -0.11632636451539803 0.20844796153978967 -0.18967428785872115 -0.0872528516997952 -1.2536031205044045 0.18278159473599975 0 0 0 3.4536026859422035 -10.43666204378616 6.025922234107825 -3.386165766774006 -11.741014066941656 4.12396960506817 0 0 0 0 0 0 11.387540205836345 -0.9293732610401777 -5.497023266101815 -1.5622077458049501 -3.39548896191409 -60.97893575320973 -3.617562138840546 -0.5323656240092309 0.06355946291760797 10.337302779037175 -28.14327365303111 16.156032539541346 -0.3368592940504076 0.009211203826528038 3.0852131273065284 1.0413898508960373 0.08774089783536484 -9.612928329192036 -0.4211491672385094 0.013914071812933448 3.846693792829061 9.424411551724646 5.286253948766255 -31.056021708585007 -2.1920643542566762 0.36761829781354705 -18.460565171993775 1.8651488448314775 0.3561401493971619 -17.775586996363483 0.7266086493988804 0.04297350989912443 -6.802236170277827 1.2475951196679986 0.12680806163383207 -11.651973112365212 1.0714317835411857 0.0935858261975045 -9.985744592639772 4.743267187993457 1.9316738332343892 -23.289269444603413 1.5504268229808416 0.19833753698449433 -14.564785068599354 0.6638140545937355 0.035923862541065915 -6.181426446915597 23.076615175322882 -0.4052262020549302 9.999119564873197 5.089963038163813 2.380071338255001 0.20486026564100382 -6.013558176363415 -2.5759008387284084 1.6581154206199533 -18.68106199126077 -2.1829748193568235 -3.961101752345768 16.328174795917075 -56.006685338987076 18.061992246275594 103.27062622088933 -7.279972902930241 -11.035699737510678 22.17388517444217 15.383952880701317 -22.030346559708246 15.642404748355773 -1.336703257047046 -2.659845496725667 -0.42781784444722165 0.016015499811554396 4.205060287711207 0.8557626471751827 0.06047694073002881 -7.9848781975883645 -18.93081965975941 7.756635796701542 13.391548443005975 -0.10915288269943829 -0.001771802931062601 1.893325059927469 -0.8021902713878787 0.03277900342475238 6.861473130490755 1.7907455212455687 -0.2776060407957185 0.19778142187913167 -1.5150108284768498 0.2014693045024176 14.976349405528076 0.3429768576025644 0.01176497174630591 -3.493607575562907 -7.0798146334060235 1.8043219257843282 6.728218529509107 -1.6468002850104917 0.2166138690640684 15.07885141271384 0.46740675022487754 -0.8339596323242131 -4.9069725975043355 -17.379419999905476 -9.043710770950264 -7.116039860604241 0.3830485256340875 -4.917117608735964 -5.8841073163808 10.601761368987054 -7.252184814347495 0.33197589964664903 7.836551002241572 5.203913168276536 3.9885516934199208 -3.465959947705461 -0.4057215632565714 -0.7221303666508808 -0.21142717898218238 6.040599789928023 -3.870187218033811 -0.005747405255001363 -10.462710696955172 1.8488988792307395 -6.463994732493258 5.180108766435433 1.3598515127890625 -1.831519997644087 0.2642196274866775 -0.3288474865119288 0.3705433057165296 7.614678254802267 4.646174374101472 0.10660700298361367 -11.426354998767582 -4.126703403669044
-0.012586718425154686 0.18442967328700277 0.7561061382293701 -1.0998326002809613 -0.04664231311679118 -1.4973503893602402 -0.13472540317385534 0.22745731603574232 -0.1954918472306256 -0.10178812744050823 -1.2372494918284591 0.19642994035481942 0 0 0 3.3862722390165816 -10.337279736125668 6.1755433729199645 -3.558938007920256 -11.62966576390592 4.106611212125855 0 0 0 0 0 0 11.365992875287612 -0.9316864389077313 -5.497100191107208 -1.7400661899156793 -3.6161500323106277 -61.249669389253036 -3.6518826836753844 -0.5374100986133504 0.06429430011089811 10.355702810248893 -28.040144709641265 16.117809937954966 -0.3045244046242826 0.007527982394817188 2.7842568628372675 1.0335132658559194 0.08638459679115001 -9.538527993626628 -0.37713635322602407 0.01113919567173997 3.436617006896657 9.324804029676153 5.163367265910415 -30.801720628807853 -2.1958559314013946 0.36621946773258585 -18.422995177201912 1.8314876645867264 0.34420088913156266 -17.444099710583636 0.7428168046741765 0.044916872712470086 -6.953872411522461 1.2475951196679986 0.12680806163383207 -11.651973112365212 1.0714317835411857 0.0935858261975045 -9.985744592639772 4.649107095066704 1.8663522313691498 -23.097778828769396 1.5503555728354363 0.19831671278689905 -14.56391367892838 0.6638140545937355 0.035923862541065915 -6.181426446915597 23.230586156813605 -0.3502018007480077 10.046930857723419 5.517666130595065 2.6340604521194564 0.3587859454636894 -5.319763951027559 -2.397270825625628 1.7191145024698684 -18.864270809010396 -2.210714676593951 -4.079955178686158 15.782349118842204 -56.48621337726308 18.798343766432065 103.09852125522596 -7.287804590014858 -11.011706463068954 21.392483629143207 11.74154251068508 -23.898705102915912 15.64239560351969 -1.3366946102358435 -2.6598661840606335 -0.42779738113017296 0.016007702456621274 4.205067950989134 0.8557431192699801 0.060476560533740176 -7.984868051629316 -18.93081253309693 7.756610808632519 13.391540978892914 -0.10917035167647968 -0.0017451144796326525 1.893331033080222 -0.8022039837851078 0.03274415211201077 6.861451531017633 1.790763868679749 -0.2775891252068148 0.19776473317579868 -1.5150150958790827 0.20142429434480527 14.976361834959002 0.3429679198196145 0.011770600482641275 -3.4936282410974515 -7.079818871827323 1.8043298271081434 6.728230405910275 -1.6467980447643473 0.2166033835815439 15.078863842513107 0.46740152048143474 -0.8339757490090131 -4.906987059992138 -17.379439184001583 -9.043691751494165 -7.116041147942574 0.38310109159665096 -4.917118894127018 -5.884088638115584 10.60175142996766 -7.2521744864420254 0.33197609486096147 7.789768682094341 5.025259118139798 3.9664472279023344 -3.6042876779398156 -0.3915304345464915 -0.7154231898199811 -0.21923006071802373 6.22175800204337 -3.9427628226413898 -0.009187592396359856 -10.498538548050862 2.0140066811894344 -6.480008759814485 5.072901422195544 1.3573760756069861 -2.021617386719659 0.23130637192300949 -0.315306614958278 0.3883341132818881 7.752269800407753 4.707134174775211 0.11211148455108388 -11.489109755083309 -4.210162754633193
-0.014454624615609646 0.18504670056971761 0.7530998587608337 -0.9801249554341236 -0.02569880605983717 -1.503977285265032 -0.15508761402632187 0.23801658213695365 -0.19062563032849825 -0.11811527574694135 -1.2320208353552553 0.18922493397390514 0 0 0 3.3565932087482375 -10.253915427081804 6.278882392134926 -3.6199718332400272 -11.533183546931522 4.048768851216575 0 0 0 0 0 0 11.35503913288619 -0.9354583779669738 -5.491442094933193 -1.872881405691753 -3.7114304018418274 -61.41245146039369 -3.6986554058998458 -0.5442718095847415 0.06531540490856773 10.427060519983822 -27.902851599081334 16.046212438251665 -0.28256892572549536 0.006471194874551862 2.5799218665284562 1.0281299014088578 0.08549464348552663 -9.4879631143082 -0.34721711149321716 0.009395011123076448 3.158180403496454 9.256613982021562 5.080413362284534 -30.629017933146425 -2.19843985906708 0.36525668492912966 -18.397419334415424 1.8085887825341107 0.33623669478727836 -17.219047647534566 0.7538190432976626 0.04626077622312557 -7.056848763190128 1.2475951196679986 0.12680806163383207 -11.651973112365212 1.0714317835411857 0.0935858261975045 -9.985744592639772 4.58494792623124 1.8223712017860016 -22.967736170556858 1.5502825090780041 0.19828812453873756 -14.563284165495938 0.6638140545937355 0.035923862541065915 -6.181426446915597 23.33514739281768 -0.31290362030884805 10.079458405934524 5.808467367986336 2.8058328668582644 0.46439169615762244 -4.848667050336117 -2.2764253676909108 1.7617691089704086 -18.945019888376237 -2.218901865267125 -4.122645887139561 15.393467802451472 -56.58479788569561 19.174226680130804 102.91026244046326 -7.2962699206491095 -10.985432080017997 19.921966244681794 8.72627864531606 -25.143754200238334 15.642403827284369 -1.3366866039292018 -2.6598619186308 -0.4278041310900459 0.015996613403947427 4.205055178859173 0.8557886310268789 0.06049507676001099 -7.98485743127398 -18.930810902994246 7.756595298797323 13.391565247561488 -0.10916086013225544 -0.0017578897139872392 1.893332099714638 -0.802176452279294 0.032758846359276235 6.8614684683663105 1.7907618419338165 -0.2776070279830843 0.19777339102429456 -1.5150178532976035 0.201464421954194 14.976368433184518 0.3429689603376304 0.011766273250885887 -3.493618867040657 -7.079789629436826 1.8043313219531933 6.728215136251523 -1.6468172468739926 0.21660166268174097 15.078862193747124 0.4674140078280094 -0.833972386919132 -4.906987910726696 -17.379425983148494 -9.043712499991777 -7.116046294566266 0.383078352890015 -4.917131319573994 -5.884087359496839 10.601737261113179 -7.2521830930299 0.3319661905024215 7.776945749492445 4.976283798284013 3.975680278259881 -3.7022771652097557 -0.4111510612715672 -0.6869813352299077 -0.21854634471151185 6.257509401926255 -3.9846977326344977 -0.010042547275794653 -10.472737805890072 2.0519640892168622 -6.515028334739764 5.056460143944552 1.3491218085452137 -2.0542754677750543 0.2169575687777059 -0.27545031510053336 0.3953380796791624 7.754242980412439 4.782863732834608 0.1040205103991273 -11.540026478211018 -4.083885881748232
